<svg aria-hidden="true" style="position:absolute;width:0;height:0;overflow:hidden" xmlns="http://www.w3.org/2000/svg">
  <defs>
    <symbol id="icon-ac" viewBox="0 0 32 32">
      <path d="M15.368 6.154c-1.155 0-2.274.394-3.167 1.115s-1.505 1.724-1.732 2.839l-.089.442a.75.75 0 0 0 .598.916.774.774 0 0 0 .91-.62l.091-.441c.171-.827.647-1.561 1.336-2.062a3.499 3.499 0 0 1 4.614.451c.576.625.896 1.437.898 2.281 0 .904-.365 1.771-1.014 2.411s-1.53.999-2.448.999H4.211c-.204 0-.4.08-.544.222a.753.753 0 0 0 0 1.072c.144.142.34.222.544.222h11.154c1.305-.031 2.545-.564 3.457-1.483s1.422-2.153 1.422-3.438-.509-2.519-1.42-3.439a5.037 5.037 0 0 0-3.456-1.485zm8.844 6.816c-1.02 0-1.998.399-2.72 1.109s-1.127 1.673-1.127 2.678c0 .201.081.394.225.536a.775.775 0 0 0 1.088 0 .753.753 0 0 0 .225-.536c0-.449.135-.889.389-1.262s.614-.665 1.036-.837a2.338 2.338 0 0 1 2.515.493 2.246 2.246 0 0 1 .501 2.476c-.174.415-.471.77-.85 1.02a2.33 2.33 0 0 1-1.282.383h-20c-.204 0-.4.08-.544.222a.752.752 0 0 0 0 1.071c.144.142.34.222.544.222h15c.51.001.999.201 1.359.557s.562.838.561 1.34c-.001.502-.205.983-.566 1.338s-.851.553-1.361.552c-.459 0-.904-.16-1.255-.451s-.586-.696-.663-1.142l-.008-.046a.745.745 0 0 0-.306-.507.785.785 0 0 0-.869-.031.76.76 0 0 0-.344.787l.008.045c.137.8.557 1.526 1.186 2.049a3.52 3.52 0 0 0 4.7-.186 3.383 3.383 0 0 0 1.018-2.411c0-.701-.215-1.353-.583-1.894h2.121c1.02 0 1.998-.399 2.72-1.109s1.127-1.673 1.127-2.678-.405-1.968-1.127-2.678a3.878 3.878 0 0 0-2.72-1.109z"/>
      <path d="M15.368 6.154 15.52.002 15.443 0h-.077l.001 6.154zm-4.898 3.953L4.44 8.88l-.002.01 6.032 1.217zm-.089.443 5.984 1.435.026-.108.022-.109-6.032-1.217zm1.507.297L5.861 9.606l-.023.113-.019.114 6.07 1.014zm.091-.441zm6.848.669h6.154v-.015l-6.154.015zm-3.462 3.41v6.154h.003l-.003-6.154zm-11.923.758zM15.365 16v6.154h.074l.074-.002L15.365 16zm6.539.757zm-18.462 3.03zm15.77.757.012-6.154h-.012v6.154zm-.008 3.787.012-6.154h-.017l.004 6.154zm-1.919-1.593-6.067 1.027.002.01.002.01 6.064-1.048zm-.007-.046-6.096.839.013.094.016.094 6.068-1.027zm-1.517.249 6.068-1.027-.015-.092-.018-.091-6.034 1.21zm.007.045L9.7 24.013l.002.01 6.066-1.038zm3.436 2.86.003-6.154h-.004l.001 6.154zm3.469-3.408 6.154.011v-.011h-6.154zm-.583-1.894V14.39H10.464l6.537 9.614 5.089-3.46zM15.367 0c-2.551.001-5.036.87-7.03 2.48l7.73 9.577a1.11 1.11 0 0 1-.697.25L15.367-.001zm-7.03 2.48a11.062 11.062 0 0 0-3.897 6.4l12.061 2.454a1.245 1.245 0 0 1-.433.723L8.338 2.48zM4.438 8.891l-.089.442 12.065 2.434.089-.442L4.438 8.891zm-.042.224a6.902 6.902 0 0 0-.088 2.79l12.126-2.108a5.408 5.408 0 0 1-.069 2.187L4.396 9.115zm-.088 2.79a6.9 6.9 0 0 0 1.019 2.589l10.309-6.723c.399.611.671 1.3.797 2.026L4.307 11.905zm1.019 2.589a6.912 6.912 0 0 0 1.937 1.963L14.127 6.24c.596.401 1.111.92 1.509 1.53L5.327 14.493zm1.937 1.964a6.95 6.95 0 0 0 2.525 1.047l2.378-12.076a5.365 5.365 0 0 1 1.96.813L7.264 16.459zm2.526 1.046a6.933 6.933 0 0 0 2.723-.009l-2.455-12.06a5.371 5.371 0 0 1 2.11-.007L9.79 17.504zm2.723-.008a6.94 6.94 0 0 0 2.519-1.063L8.103 6.261a5.376 5.376 0 0 1 1.955-.825l2.455 12.06zm2.518-1.063a6.917 6.917 0 0 0 1.925-1.976L6.603 7.802a5.387 5.387 0 0 1 1.5-1.541l6.929 10.172zm1.925-1.977a6.905 6.905 0 0 0 1.002-2.596L5.818 9.833c.121-.727.39-1.418.784-2.032l10.353 6.655zm.96-2.368.091-.441L5.952 9.165l-.091.441 12.055 2.482zm.09-.439a2.757 2.757 0 0 1-1.074 1.673L9.698 3.365a9.556 9.556 0 0 0-3.746 5.797l12.054 2.487zm-1.074 1.673a2.66 2.66 0 0 1-1.821.498l1.198-12.249a9.65 9.65 0 0 0-6.611 1.795l7.234 9.957zm-1.821.498a2.677 2.677 0 0 1-1.707-.853l9.049-8.343a9.629 9.629 0 0 0-6.144-3.053L15.111 13.82zm-1.706-.854a2.78 2.78 0 0 1-.732-1.876l12.308-.031a9.534 9.534 0 0 0-2.527-6.437l-9.049 8.343zm-.732-1.891c0-.759.307-1.467.822-1.974l8.637 8.768a9.538 9.538 0 0 0 2.849-6.795H12.673zm.822-1.973a2.665 2.665 0 0 1 1.868-.771l.005 12.308a9.644 9.644 0 0 0 6.764-2.769l-8.637-8.768zm1.87-.771H4.211v12.308h11.154V8.331zm-11.153 0a6.924 6.924 0 0 0-4.861 1.991l8.635 8.77a5.38 5.38 0 0 1-3.774 1.547V8.331zM-.65 10.322a6.906 6.906 0 0 0-2.062 4.921H9.596a5.402 5.402 0 0 1-1.611 3.849l-8.635-8.77zm-2.062 4.921c0 1.864.753 3.632 2.062 4.921l8.635-8.77a5.402 5.402 0 0 1 1.611 3.849H-2.712zm2.062 4.92a6.93 6.93 0 0 0 4.861 1.991V9.846a5.38 5.38 0 0 1 3.774 1.547l-8.635 8.77zm4.862 1.991h11.154V9.846H4.212v12.308zm11.302-.002a11.19 11.19 0 0 0 7.679-3.303l-8.741-8.665c.218-.22.494-.33.765-.336l.297 12.304zm7.678-3.303a11.04 11.04 0 0 0 3.206-7.769l-12.308-.004c0-.351.14-.67.361-.892l8.741 8.665zm3.206-7.769a11.041 11.041 0 0 0-3.201-7.771l-8.746 8.66a1.268 1.268 0 0 1-.361-.893l12.308.004zm-3.201-7.771A11.198 11.198 0 0 0 15.52.001l-.304 12.304a1.114 1.114 0 0 1-.765-.337l8.746-8.66zm1.015 3.508a10.03 10.03 0 0 0-7.037 2.878l8.635 8.77c-.44.433-1.016.66-1.598.66V6.817zm-7.038 2.878a9.91 9.91 0 0 0-2.963 7.063h12.308c0 .659-.267 1.271-.71 1.707l-8.635-8.77zm-2.963 7.062c0 1.864.753 3.632 2.062 4.921l8.635-8.77a5.402 5.402 0 0 1 1.611 3.849H14.211zm2.062 4.921a6.93 6.93 0 0 0 4.862 1.991V11.361a5.38 5.38 0 0 1 3.774 1.547l-8.635 8.77zm4.862 1.991a6.928 6.928 0 0 0 4.862-1.991l-8.635-8.77a5.38 5.38 0 0 1 3.774-1.547v12.308zm4.861-1.991a6.906 6.906 0 0 0 2.062-4.921H15.75c0-1.462.591-2.845 1.611-3.849l8.635 8.77zm2.062-4.921c0 .789-.238 1.553-.673 2.193l-10.184-6.911a8.4 8.4 0 0 0-1.451 4.718h12.308zm-.673 2.194a3.86 3.86 0 0 1-1.732 1.406L21.005 8.961a8.459 8.459 0 0 0-3.804 3.079l10.184 6.911zm-1.733 1.405a3.814 3.814 0 0 1-2.173.212L25.845 8.49a8.49 8.49 0 0 0-4.84.47l4.648 11.396zm-2.173.212a3.841 3.841 0 0 1-1.953-1.032l8.635-8.77a8.472 8.472 0 0 0-4.316-2.276l-2.366 12.078zm-1.953-1.032a3.896 3.896 0 0 1-1.083-2.003l12.064-2.437a8.418 8.418 0 0 0-2.346-4.33l-8.635 8.77zm-1.083-2.003a3.916 3.916 0 0 1 .228-2.292l11.345 4.773a8.391 8.391 0 0 0 .491-4.918l-12.064 2.437zm.228-2.292c.303-.72.809-1.32 1.44-1.735l6.765 10.282a8.428 8.428 0 0 0 3.14-3.775L20.671 15.24zm1.44-1.735c.63-.414 1.36-.63 2.1-.63v12.308a8.483 8.483 0 0 0 4.664-1.396L22.11 13.506zm2.101-.63h-20v12.308h20V12.876zm-20 0a6.924 6.924 0 0 0-4.861 1.991l8.635 8.77a5.38 5.38 0 0 1-3.774 1.547V12.876zm-4.862 1.99a6.904 6.904 0 0 0-2.062 4.921H9.596a5.402 5.402 0 0 1-1.611 3.849l-8.635-8.77zm-2.062 4.921c0 1.864.753 3.632 2.062 4.921l8.635-8.77a5.402 5.402 0 0 1 1.611 3.849H-2.712zm2.062 4.921a6.93 6.93 0 0 0 4.861 1.991V14.391a5.38 5.38 0 0 1 3.774 1.547l-8.635 8.77zm4.862 1.99h15V14.39h-15v12.308zm14.987 0a4.215 4.215 0 0 1-2.956-1.22l8.653-8.753a8.09 8.09 0 0 0-5.673-2.335l-.024 12.308zm-2.955-1.22a4.278 4.278 0 0 1-1.267-3.049l12.308.025a8.036 8.036 0 0 0-2.388-5.729l-8.653 8.753zm-1.267-3.049a4.272 4.272 0 0 1 1.279-3.043l8.618 8.787a8.03 8.03 0 0 0 2.411-5.719l-12.308-.025zm1.279-3.043a4.213 4.213 0 0 1 2.96-1.208l-.024 12.308a8.094 8.094 0 0 0 5.682-2.312l-8.618-8.787zm2.943-1.208a4.185 4.185 0 0 1 2.681.969l-7.864 9.468a8.113 8.113 0 0 0 5.192 1.871l-.009-12.308zm2.682.968a4.246 4.246 0 0 1 1.469 2.544l-12.128 2.096a8.06 8.06 0 0 0 2.795 4.828l7.864-9.468zm1.472 2.565-.008-.045L11.21 23.72l.008.045 12.135-2.054zm.021.142a6.923 6.923 0 0 0-.924-2.619L11.905 25.58a5.39 5.39 0 0 1-.723-2.05l12.193-1.678zm-.924-2.618a6.915 6.915 0 0 0-1.861-2.029l-7.234 9.957a5.408 5.408 0 0 1-1.451-1.582l10.545-6.346zm-1.861-2.029a6.925 6.925 0 0 0-2.48-1.137L15.28 28.047a5.385 5.385 0 0 1-1.925-.883l7.234-9.957zm-2.48-1.138a6.935 6.935 0 0 0-2.715-.094l1.989 12.146a5.377 5.377 0 0 1-2.103-.073l2.829-11.978zm-2.714-.094a6.944 6.944 0 0 0-2.55.96l6.518 10.44a5.368 5.368 0 0 1-1.979.745l-1.989-12.146zm-2.55.96a6.908 6.908 0 0 0-1.996 1.889l10.068 7.079a5.396 5.396 0 0 1-1.555 1.472l-6.518-10.44zm-1.996 1.89a6.91 6.91 0 0 0-1.107 2.543l12.041 2.546a5.395 5.395 0 0 1-.866 1.989l-10.068-7.079zm-1.107 2.543a6.906 6.906 0 0 0-.015 2.784l12.067-2.42a5.4 5.4 0 0 1-.011 2.182L9.742 21.367zm-.049 2.601.008.045 12.135-2.054-.008-.045-12.135 2.054zm.01.056a9.572 9.572 0 0 0 3.314 5.741l7.874-9.459c.487.405.83.984.943 1.643L9.703 24.024zm3.314 5.741A9.672 9.672 0 0 0 19.205 32l-.002-12.308c.605 0 1.204.21 1.689.614l-7.874 9.459zM19.201 32a9.65 9.65 0 0 0 6.766-2.761l-8.625-8.78a2.66 2.66 0 0 1 1.864-.767L19.201 32zm6.766-2.761a9.544 9.544 0 0 0 2.86-6.79l-12.308-.022a2.765 2.765 0 0 1 .823-1.968l8.625 8.78zm2.86-6.801a9.51 9.51 0 0 0-1.648-5.354l-10.178 6.92a2.795 2.795 0 0 1-.482-1.567h12.308zm-6.737 4.26h2.121V14.39H22.09v12.308zm2.122 0c2.622 0 5.155-1.024 7.037-2.878l-8.635-8.77a2.277 2.277 0 0 1 1.598-.66v12.308zm7.037-2.878a9.91 9.91 0 0 0 2.963-7.063H21.904c0-.659.267-1.271.71-1.707l8.635 8.77zm2.963-7.063a9.91 9.91 0 0 0-2.963-7.063l-8.635 8.77a2.395 2.395 0 0 1-.71-1.707h12.308zm-2.963-7.062a10.03 10.03 0 0 0-7.037-2.878v12.308a2.277 2.277 0 0 1-1.598-.66l8.635-8.77z"/>
    </symbol>
    <symbol id="icon-route" viewBox="0 0 32 32">
      <path d="M6.667 4a2.667 2.667 0 1 0 0 5.334 2.667 2.667 0 0 0 0-5.334zM1.333 6.667a5.333 5.333 0 1 1 10.666 0 5.333 5.333 0 0 1-10.666 0zM25.333 22.667a2.667 2.667 0 1 0 0 5.334 2.667 2.667 0 0 0 0-5.334zM20 25.333a5.333 5.333 0 1 1 10.667 0 5.333 5.333 0 0 1-10.667 0z"/>
      <path d="M13.333 6.667c0-.736.597-1.333 1.333-1.333h8.4c4.13 0 5.62 5.404 1.987 7.429L9.58 21.567a1.295 1.295 0 0 0 .686 2.434h7.067a1.333 1.333 0 0 1 0 2.666h-7.067c-4.13 0-5.619-5.404-1.987-7.429l15.473-8.804A1.295 1.295 0 0 0 23.066 8h-8.4a1.333 1.333 0 0 1-1.333-1.333z"/>
    </symbol>
    <symbol id="icon-favoridRed" viewBox="0 0 32 32">
      <path stroke-linejoin="round" stroke-linecap="round" stroke-width="3.067" d="M27.787 6.147a7.326 7.326 0 0 0-10.373 0L16.001 7.56l-1.413-1.413a7.333 7.333 0 0 0-10.374 0 7.333 7.333 0 0 0 0 10.374l11.787 11.787 11.787-11.787a7.345 7.345 0 0 0 2.15-5.187 7.33 7.33 0 0 0-2.15-5.187z"/>
    </symbol>
    <symbol id="icon-data" viewBox="0 0 32 32">
      <path stroke-linejoin="round" stroke-linecap="round" stroke-width="2.4" d="M25.333 5.333H6.666A2.667 2.667 0 0 0 3.999 8v18.667a2.667 2.667 0 0 0 2.667 2.667h18.667A2.667 2.667 0 0 0 28 26.667V8a2.667 2.667 0 0 0-2.667-2.667zM21.333 2.667V8M10.667 2.667V8M4 13.333h24"/>
    </symbol>
    <symbol id="icon-rating" viewBox="0 0 31 32">
      <path stroke-linejoin="round" stroke-linecap="round" stroke-width="1.939" d="m5.172 5.657 3.232 3.232m9.05 0a6.403 6.403 0 0 0-9.005.045 6.398 6.398 0 0 0-.045 9.005m10.99-10.99L6.465 19.878m11.636 2.587v.013m-5.172-1.306v.013m3.879-3.892v.013m3.879-3.892v.013m-6.465 12.916v.013m7.758-7.77v.013m3.879-3.892v.013"/>
    </symbol>
    <symbol id="icon-hob" viewBox="0 0 32 32">
      <path stroke-width="2.4" d="M12 6.667h16a1.335 1.335 0 0 1 1.334 1.334v17.333A1.335 1.335 0 0 1 28 26.668H12m0-20.001H4a1.335 1.335 0 0 0-1.334 1.334v17.333A1.335 1.335 0 0 0 4 26.668h8m0-20.001v20"/>
      <path stroke-linejoin="round" stroke-linecap="round" stroke-width="2.4" d="M7.333 11.333V14m17.333-3.333-8 11.333"/>
      <path d="M8.667 18A1.333 1.333 0 1 0 6 18a1.333 1.333 0 0 0 2.667 0zM8.667 22A1.333 1.333 0 1 0 6 22a1.333 1.333 0 0 0 2.667 0z"/>
    </symbol>
    <symbol id="icon-radio" viewBox="0 0 32 32">
      <path stroke-width="2.311" d="M1.185 18.963c0-5.587 0-8.381 1.736-10.116C4.656 7.111 7.45 7.111 13.037 7.111h5.926c5.587 0 8.381 0 10.116 1.736 1.736 1.735 1.736 4.529 1.736 10.116s0 8.381-1.736 10.116c-1.735 1.736-4.529 1.736-10.116 1.736h-5.926c-5.587 0-8.381 0-10.116-1.736-1.736-1.735-1.736-4.529-1.736-10.116z"/>
      <path stroke-width="2.311" d="M5.629 14.519a2.962 2.962 0 0 1 2.963-2.963h14.815a2.96 2.96 0 0 1 2.963 2.963 2.962 2.962 0 0 1-2.963 2.963H8.592a2.962 2.962 0 0 1-2.963-2.963zm5.926 8.888a2.222 2.222 0 1 1-4.443 0 2.222 2.222 0 0 1 4.443 0z"/>
      <path stroke-linecap="round" stroke-width="2.311" d="M20.444 15.259v2.222m-2.963 5.926h7.407M7.852 7.111l12.593-5.926"/>
    </symbol>
    <symbol id="icon-cd" viewBox="0 0 32 32">
      <path stroke-width="2.4" d="M16 28c6.627 0 12-5.373 12-12S22.627 4 16 4 4 9.373 4 16s5.373 12 12 12z"/>
      <path stroke-linecap="round" stroke-width="2.4" d="M8.666 16a7.333 7.333 0 0 1 7.333-7.333"/>
      <path stroke-width="2.4" d="M16 19.333a3.333 3.333 0 1 0 0-6.665 3.333 3.333 0 0 0 0 6.665z"/>
    </symbol>
    <symbol id="icon-conditioner" viewBox="0 0 32 32">
      <path stroke-linejoin="round" stroke-linecap="round" stroke-width="2.4" d="M28.572 1.143H3.429a2.287 2.287 0 0 0-2.285 2.285v11.429a2.287 2.287 0 0 0 2.285 2.285h25.143a2.287 2.287 0 0 0 2.285-2.285V3.428a2.287 2.287 0 0 0-2.285-2.285z"/>
      <path stroke-linejoin="round" stroke-linecap="round" stroke-width="2.4" d="M25.143 17.143v-4.571a2.287 2.287 0 0 0-2.285-2.285H9.144a2.287 2.287 0 0 0-2.285 2.285v4.571M5.714 28.572h.229a3.2 3.2 0 0 0 3.2-3.2v-2.514m17.142 5.714h-.228a3.2 3.2 0 0 1-3.2-3.2v-2.514M16 30.857v-8"/>
    </symbol>
    <symbol id="icon-beds" viewBox="0 0 32 32">
      <path stroke-linejoin="round" stroke-linecap="round" stroke-width="2.24" d="M3 26v-7a4.012 4.012 0 0 1 4-4h18a4.012 4.012 0 0 1 4 4v7m-5-11H6V8.5A2.504 2.504 0 0 1 8.5 6h15A2.504 2.504 0 0 1 26 8.5V15h-2z"/>
      <path stroke-linejoin="round" stroke-linecap="round" stroke-width="2.24" d="M3 26v-.5A1.504 1.504 0 0 1 4.5 24h23a1.504 1.504 0 0 1 1.5 1.5v.5M7 15v-1a2.002 2.002 0 0 1 2-2h5a2.002 2.002 0 0 1 2 2m0 0v1m0-1a2.008 2.008 0 0 1 2-2h5a2.002 2.002 0 0 1 2 2v1"/>
    </symbol>
    <symbol id="icon-petrol" viewBox="0 0 30 32">
      <path d="m26.95 8.05.017-.017-6.2-6.2L19 3.6l3.517 3.517a4.153 4.153 0 0 0-2.366 5.478A4.167 4.167 0 0 0 24 15.167c.6 0 1.15-.133 1.667-.35v12.017a1.667 1.667 0 0 1-3.333 0v-7.5a3.333 3.333 0 0 0-3.333-3.333h-1.667V4.334a3.333 3.333 0 0 0-3.333-3.333h-10A3.333 3.333 0 0 0 .668 4.334v26.667h16.667v-12.5h2.5v8.333a4.167 4.167 0 1 0 8.333 0V11.001c0-1.15-.467-2.2-1.217-2.95zM14 18.5v9.167H4V16h10v2.5zm0-5.833H4V4.334h10v8.333zm10 0a1.667 1.667 0 1 1 0-3.334 1.667 1.667 0 0 1 0 3.334z"/>
    </symbol>
    <symbol id="icon-adults" viewBox="0 0 46 32">
      <path d="M12.952 27.619H6.666c-.381 0-.571-.191-.762-.381s-.381-.571-.191-.952c1.143-3.238 4-5.143 7.238-5.143 4 0 7.238-3.429 7.238-7.429s-3.238-7.81-7.238-7.81-7.238 3.429-7.238 7.619c0 1.905.762 3.81 1.905 5.143-2.476 1.333-4.381 3.429-5.524 6.286-.381 1.333-.19 3.048.762 4.381s2.286 2.095 3.81 2.095h6.286c1.143 0 1.905-.762 1.905-1.905s-.762-1.905-1.905-1.905zM9.524 13.524c0-2.095 1.524-3.619 3.429-3.619s3.429 1.714 3.429 3.619c0 2.095-1.524 3.619-3.429 3.619s-3.429-1.714-3.429-3.619z"/>
      <path d="M43.619 23.81c-1.333-3.619-4-6.286-7.048-7.81 1.714-1.524 2.666-3.809 2.666-6.476 0-4.952-3.809-8.952-8.381-8.952s-8.381 4-8.381 8.952c0 2.476.952 4.762 2.667 6.476-3.048 1.524-5.714 4.191-7.048 7.81-.952 1.714-.571 3.619.381 5.143s2.667 2.286 4.381 2.286h15.809c1.714 0 3.429-.952 4.381-2.286 1.143-1.524 1.333-3.429.571-5.143zM26.095 9.714c0-2.857 2.095-5.143 4.571-5.143s4.571 2.286 4.571 5.143-2.095 5.143-4.571 5.143c-2.476 0-4.571-2.476-4.571-5.143zm13.714 17.143c-.19.191-.571.762-1.143.762H22.857c-.762 0-1.143-.571-1.143-.762-.191-.19-.571-.952-.19-1.714 1.524-4 5.333-6.667 9.333-6.667s7.809 2.667 9.333 6.667c.19.762-.19 1.524-.381 1.714z"/>
    </symbol>
    <symbol id="icon-favorite" viewBox="0 0 36 32">
      <path stroke-linejoin="round" stroke-linecap="round" stroke-width="3.345" d="M31.04 5.251a8 8 0 0 0-11.316 0l-1.542 1.542-1.542-1.542A8.001 8.001 0 1 0 5.324 16.567l12.858 12.858L31.04 16.567a8 8 0 0 0 0-11.316z"/>
    </symbol>
    <symbol id="icon-kitchen" viewBox="0 0 32 32">
      <path stroke-linejoin="round" stroke-linecap="round" stroke-width="1.746" d="M25.051 19.879V4.364c-6.227 5.94-6.494 10.756-6.465 15.515h6.465zm0 0v7.758h-1.293v-3.879M10.828 5.657v21.98M6.95 5.657v3.879a3.882 3.882 0 0 0 3.879 3.879 3.882 3.882 0 0 0 3.879-3.879V5.657"/>
    </symbol>
    <symbol id="icon-alcove" viewBox="0 0 44 32">
      <path d="M2.518 2.289h11.981a.382.382 0 0 0 .268-.109l1.151-1.123A1.784 1.784 0 0 1 17.17.551h18.168c.846 0 1.631.41 2.101 1.097l2.177 3.186c.309.452.337 1.031.074 1.51s-.773.777-1.33.777h-9.364v.923h4.796c1.271 0 2.415.737 2.914 1.878l2.808 6.42 2.46.96c1.314.513 2.162 1.735 2.162 3.116v5.946c0 .887-.74 1.608-1.649 1.608h-2.862c-.333 1.968-2.089 3.475-4.2 3.475s-3.867-1.507-4.2-3.475H15.58c-.333 1.968-2.09 3.475-4.2 3.475s-3.867-1.507-4.2-3.475H1.463c-.808 0-1.466-.641-1.466-1.43V4.745c0-1.355 1.129-2.457 2.518-2.457zm32.909 27.802c1.581 0 2.867-1.254 2.867-2.796s-1.286-2.796-2.867-2.796-2.866 1.254-2.866 2.796 1.286 2.796 2.866 2.796zm-6.429-3.475h2.228l.02-.101.013-.068c.011-.053.024-.106.037-.159l.008-.033c.017-.063.035-.126.055-.188l.018-.054c.014-.043.029-.087.045-.13l.027-.068a2.18 2.18 0 0 1 .045-.112l.032-.072c.016-.035.031-.07.048-.104l.037-.073c.017-.033.034-.067.052-.099l.04-.072c.018-.033.038-.065.057-.097a4.052 4.052 0 0 1 .106-.165l.043-.063.075-.102.039-.053c.035-.045.07-.087.105-.13l.016-.02c.041-.049.084-.097.127-.143.013-.015.027-.028.041-.042l.093-.096.054-.051.087-.081.06-.052.087-.074.064-.05.09-.069.066-.048.093-.065.067-.044c.033-.022.067-.042.1-.063l.066-.04c.037-.022.075-.042.112-.063l.057-.032.163-.082.013-.006c.059-.028.119-.054.179-.079l.059-.023c.041-.016.083-.033.125-.048l.072-.025.116-.038.079-.023.114-.032.082-.021.114-.026.084-.017a4.141 4.141 0 0 1 .325-.049l.08-.009c.046-.004.092-.008.138-.01.023-.002.045-.004.068-.004a3.644 3.644 0 0 1 .418 0l.068.004.138.01c.027.002.053.006.08.009l.124.016.084.013.117.02a2.498 2.498 0 0 1 .198.043l.082.021.114.032.079.023.116.038.072.025.125.048.059.023c.06.025.12.052.179.079l.013.006c.055.026.109.053.163.082l.057.032c.038.021.076.041.112.063l.066.04c.033.021.067.041.1.063l.067.044.094.065.066.048.09.069.063.05.087.074.06.052.087.081.054.051c.032.031.062.064.093.096l.041.042c.043.047.086.094.127.143l.016.02c.036.043.071.086.105.13l.039.053a2.425 2.425 0 0 1 .118.165l.064.097.042.068c.02.032.039.065.057.097l.039.072a2.354 2.354 0 0 1 .089.172l.048.104.032.072c.016.037.031.074.045.112l.027.068c.016.043.031.086.045.13l.018.054c.019.062.038.124.054.188l.008.033c.013.053.026.105.037.159l.013.068c.007.034.014.067.019.101h2.861a.254.254 0 0 0 .257-.251v-2.844H41.66v-1.358h1.085v-1.744c0-.822-.505-1.55-1.287-1.855l-2.604-1.016h-9.857v9.068zm0-10.426h8.938l-2.508-5.735a1.775 1.775 0 0 0-1.634-1.053h-4.796v6.787zM11.382 30.091c1.581 0 2.866-1.254 2.866-2.796s-1.286-2.796-2.866-2.796c-.05 0-.099.001-.148.004-1.317.065-2.402 1.002-2.661 2.23l-.026.138a2.874 2.874 0 0 0-.033.425c0 1.542 1.286 2.796 2.867 2.796zm-9.991-7.928h1.085v1.358H1.391v3.023c0 .04.033.072.074.072h5.716l.019-.1.013-.07c.011-.052.023-.104.037-.155l.009-.036c.017-.063.035-.125.055-.187l.019-.056c.014-.043.029-.086.045-.128l.027-.07c.014-.037.029-.074.045-.11l.033-.074c.016-.034.031-.069.048-.103l.037-.074.052-.099.04-.072.057-.097.042-.069a4.005 4.005 0 0 1 .106-.16l.073-.1.041-.055c.033-.043.067-.085.102-.127l.018-.022a4.45 4.45 0 0 1 .169-.186c.031-.032.061-.064.092-.094l.055-.052.086-.08.06-.053.087-.073.064-.052.089-.068.066-.048.093-.065.067-.045c.033-.022.066-.042.1-.062l.066-.04c.037-.022.074-.042.112-.063l.058-.032c.053-.028.106-.055.161-.08l.014-.007c.059-.028.119-.054.179-.079l.059-.023c.042-.016.083-.033.125-.048l.073-.025.115-.038a2.35 2.35 0 0 1 .079-.023l.114-.032.082-.021.114-.026.084-.017.117-.02a4.654 4.654 0 0 1 .288-.038c.046-.004.092-.008.138-.01.023-.002.045-.004.068-.004a3.644 3.644 0 0 1 .418 0l.068.004.138.01c.027.002.054.006.08.009a4.654 4.654 0 0 1 .207.029l.118.02a2.498 2.498 0 0 1 .198.043l.082.021.114.032.079.023.115.038.073.025.125.048.059.023a5.714 5.714 0 0 1 .354.166l.058.032c.037.021.075.041.112.063l.066.04.1.062.067.045c.031.021.062.042.093.065l.066.048.089.068.064.052a3.052 3.052 0 0 1 .147.125l.087.081.054.051.093.095.041.043c.043.047.086.094.127.143l.017.021a4.5 4.5 0 0 1 .104.129l.04.053c.025.034.05.067.074.102l.043.064a2.007 2.007 0 0 1 .105.165c.02.032.039.065.057.097l.04.072.053.099.036.073.048.104.032.072a3.745 3.745 0 0 1 .118.311c.006.018.013.035.018.053a4.048 4.048 0 0 1 .133.549h12.024V6.444c0-.375.312-.679.696-.679h10.059c.017 0 .07 0 .103-.06s.004-.103-.006-.116l-2.177-3.186a1.14 1.14 0 0 0-.943-.492H17.171a.38.38 0 0 0-.268.109l-1.151 1.123a1.782 1.782 0 0 1-1.252.506H2.519c-.621 0-1.127.493-1.127 1.099v17.417z"/>
      <path d="M19.422 7.501h4.401c.889 0 1.612.705 1.612 1.573v14.527a.688.688 0 0 1-.696.679h-6.234a.688.688 0 0 1-.696-.679V9.074c-.001-.868.722-1.573 1.612-1.573zm-.221 15.421h4.842V14.94h-4.842v7.982zm0-9.339h4.842V9.075a.219.219 0 0 0-.221-.216h-4.401a.219.219 0 0 0-.221.216v4.508h.001zM5.345 7.501h8.51c.983 0 1.784.781 1.784 1.74V13.2c0 .959-.8 1.74-1.784 1.74H5.344c-.984 0-1.784-.781-1.784-1.74V9.241c.001-.959.801-1.74 1.784-1.74zM4.952 13.2c0 .211.176.383.392.383h8.51a.388.388 0 0 0 .392-.383V9.241a.388.388 0 0 0-.392-.383H5.343a.388.388 0 0 0-.392.383V13.2h.001z"/>
    </symbol>
    <symbol id="icon-fulliInteg" viewBox="0 0 44 32">
      <path d="M2.518 2.289h11.981a.382.382 0 0 0 .268-.109l1.151-1.123A1.784 1.784 0 0 1 17.17.551h18.168c.846 0 1.631.41 2.101 1.097l2.177 3.186c.309.452.337 1.031.074 1.51s-.773.777-1.33.777h-9.364v.923h4.796c1.271 0 2.415.737 2.914 1.878l2.808 6.42 2.46.96c1.314.513 2.162 1.735 2.162 3.116v5.946c0 .887-.74 1.608-1.649 1.608h-2.862c-.333 1.968-2.089 3.475-4.2 3.475s-3.867-1.507-4.2-3.475H15.58c-.333 1.968-2.09 3.475-4.2 3.475s-3.867-1.507-4.2-3.475H1.463c-.808 0-1.466-.641-1.466-1.43V4.745c0-1.355 1.129-2.457 2.518-2.457zm32.909 27.802c1.581 0 2.867-1.254 2.867-2.796s-1.286-2.796-2.867-2.796-2.866 1.254-2.866 2.796 1.286 2.796 2.866 2.796zm-6.429-3.475h2.228l.02-.101.013-.068c.011-.053.024-.106.037-.159l.008-.033c.017-.063.035-.126.055-.188l.018-.054c.014-.043.029-.087.045-.13l.027-.068a2.18 2.18 0 0 1 .045-.112l.032-.072c.016-.035.031-.07.048-.104l.037-.073c.017-.033.034-.067.052-.099l.04-.072c.018-.033.038-.065.057-.097a4.052 4.052 0 0 1 .106-.165l.043-.063.075-.102.039-.053c.035-.045.07-.087.105-.13l.016-.02c.041-.049.084-.097.127-.143.013-.015.027-.028.041-.042l.093-.096.054-.051.087-.081.06-.052.087-.074.064-.05.09-.069.066-.048.093-.065.067-.044c.033-.022.067-.042.1-.063l.066-.04c.037-.022.075-.042.112-.063l.057-.032.163-.082.013-.006c.059-.028.119-.054.179-.079l.059-.023c.041-.016.083-.033.125-.048l.072-.025.116-.038.079-.023.114-.032.082-.021.114-.026.084-.017a4.141 4.141 0 0 1 .325-.049l.08-.009c.046-.004.092-.008.138-.01.023-.002.045-.004.068-.004a3.644 3.644 0 0 1 .418 0l.068.004.138.01c.027.002.053.006.08.009l.124.016.084.013.117.02a2.498 2.498 0 0 1 .198.043l.082.021.114.032.079.023.116.038.072.025.125.048.059.023c.06.025.12.052.179.079l.013.006c.055.026.109.053.163.082l.057.032c.038.021.076.041.112.063l.066.04c.033.021.067.041.1.063l.067.044.094.065.066.048.09.069.063.05.087.074.06.052.087.081.054.051c.032.031.062.064.093.096l.041.042c.043.047.086.094.127.143l.016.02c.036.043.071.086.105.13l.039.053a2.425 2.425 0 0 1 .118.165l.064.097.042.068c.02.032.039.065.057.097l.039.072a2.354 2.354 0 0 1 .089.172l.048.104.032.072c.016.037.031.074.045.112l.027.068c.016.043.031.086.045.13l.018.054c.019.062.038.124.054.188l.008.033c.013.053.026.105.037.159l.013.068c.007.034.014.067.019.101h2.861a.254.254 0 0 0 .257-.251v-2.844H41.66v-1.358h1.085v-1.744c0-.822-.505-1.55-1.287-1.855l-2.604-1.016h-9.857v9.068zm0-10.426h8.938l-2.508-5.735a1.775 1.775 0 0 0-1.634-1.053h-4.796v6.787zM11.382 30.091c1.581 0 2.866-1.254 2.866-2.796s-1.286-2.796-2.866-2.796c-.05 0-.099.001-.148.004-1.317.065-2.402 1.002-2.661 2.23l-.026.138a2.874 2.874 0 0 0-.033.425c0 1.542 1.286 2.796 2.867 2.796zm-9.991-7.928h1.085v1.358H1.391v3.023c0 .04.033.072.074.072h5.716l.019-.1.013-.07c.011-.052.023-.104.037-.155l.009-.036c.017-.063.035-.125.055-.187l.019-.056c.014-.043.029-.086.045-.128l.027-.07c.014-.037.029-.074.045-.11l.033-.074c.016-.034.031-.069.048-.103l.037-.074.052-.099.04-.072.057-.097.042-.069a4.005 4.005 0 0 1 .106-.16l.073-.1.041-.055c.033-.043.067-.085.102-.127l.018-.022a4.45 4.45 0 0 1 .169-.186c.031-.032.061-.064.092-.094l.055-.052.086-.08.06-.053.087-.073.064-.052.089-.068.066-.048.093-.065.067-.045c.033-.022.066-.042.1-.062l.066-.04c.037-.022.074-.042.112-.063l.058-.032c.053-.028.106-.055.161-.08l.014-.007c.059-.028.119-.054.179-.079l.059-.023c.042-.016.083-.033.125-.048l.073-.025.115-.038a2.35 2.35 0 0 1 .079-.023l.114-.032.082-.021.114-.026.084-.017.117-.02a4.654 4.654 0 0 1 .288-.038c.046-.004.092-.008.138-.01.023-.002.045-.004.068-.004a3.644 3.644 0 0 1 .418 0l.068.004.138.01c.027.002.054.006.08.009a4.654 4.654 0 0 1 .207.029l.118.02a2.498 2.498 0 0 1 .198.043l.082.021.114.032.079.023.115.038.073.025.125.048.059.023a5.714 5.714 0 0 1 .354.166l.058.032c.037.021.075.041.112.063l.066.04.1.062.067.045c.031.021.062.042.093.065l.066.048.089.068.064.052a3.052 3.052 0 0 1 .147.125l.087.081.054.051.093.095.041.043c.043.047.086.094.127.143l.017.021a4.5 4.5 0 0 1 .104.129l.04.053c.025.034.05.067.074.102l.043.064a2.007 2.007 0 0 1 .105.165c.02.032.039.065.057.097l.04.072.053.099.036.073.048.104.032.072a3.745 3.745 0 0 1 .118.311c.006.018.013.035.018.053a4.048 4.048 0 0 1 .133.549h12.024V6.444c0-.375.312-.679.696-.679h10.059c.017 0 .07 0 .103-.06s.004-.103-.006-.116l-2.177-3.186a1.14 1.14 0 0 0-.943-.492H17.171a.38.38 0 0 0-.268.109l-1.151 1.123a1.782 1.782 0 0 1-1.252.506H2.519c-.621 0-1.127.493-1.127 1.099v17.417z"/>
      <path d="M19.422 7.501h4.401c.889 0 1.612.705 1.612 1.573v14.527a.688.688 0 0 1-.696.679h-6.234a.688.688 0 0 1-.696-.679V9.074c-.001-.868.722-1.573 1.612-1.573zm-.221 15.421h4.842V14.94h-4.842v7.982zm0-9.339h4.842V9.075a.219.219 0 0 0-.221-.216h-4.401a.219.219 0 0 0-.221.216l.001 4.508z"/>
    </symbol>
    <symbol id="icon-van" viewBox="0 0 46 32">
      <path d="M2.608 1.8h12.409c.105 0 .203-.04.278-.112L16.487.525a1.845 1.845 0 0 1 1.297-.524h18.817c.876 0 1.69.425 2.176 1.136l2.255 3.3c.32.468.349 1.067.077 1.564s-.8.805-1.377.805h-9.698v.956h4.967c1.317 0 2.501.763 3.018 1.945l2.908 6.65 2.548.994c1.36.531 2.24 1.797 2.24 3.227v6.158c0 .918-.766 1.666-1.708 1.666h-2.964c-.345 2.039-2.164 3.599-4.35 3.599s-4.005-1.561-4.35-3.599H16.14c-.345 2.039-2.164 3.599-4.35 3.599s-4.005-1.561-4.35-3.599H1.519c-.837 0-1.518-.664-1.518-1.481V4.345c0-1.403 1.17-2.544 2.608-2.544zm34.084 28.794c1.637 0 2.969-1.299 2.969-2.896s-1.332-2.896-2.969-2.896c-1.637 0-2.969 1.299-2.969 2.896s1.332 2.896 2.969 2.896zm-6.658-3.599h2.307l.02-.105.014-.071c.012-.055.025-.11.039-.164.003-.011.005-.023.009-.034a3.34 3.34 0 0 1 .057-.195l.019-.056a5.274 5.274 0 0 1 .122-.321l.033-.075c.016-.037.032-.072.05-.108l.038-.075.054-.103.041-.074.059-.101.043-.071.066-.101.044-.065.077-.105.04-.055.109-.135.016-.02c.043-.051.087-.1.132-.148l.043-.044.096-.099.056-.053.09-.084.062-.054.09-.077.066-.052.093-.071a1.22 1.22 0 0 1 .069-.05l.097-.068.069-.046c.034-.023.069-.044.104-.065l.068-.041c.038-.023.077-.044.116-.065l.059-.033.168-.084.013-.006c.061-.029.123-.056.186-.082l.061-.024.13-.05.075-.026.12-.039.082-.024c.039-.011.078-.023.118-.033.028-.007.056-.015.085-.021l.118-.026.087-.018c.04-.007.081-.015.122-.021l.086-.014.128-.016.082-.009.143-.011.07-.005a3.893 3.893 0 0 1 .502.005c.048.003.096.006.143.011.028.002.055.006.082.009l.128.016c.029.004.058.008.087.014.041.006.081.014.122.021l.087.018a4.084 4.084 0 0 1 .321.08l.082.024.12.039.075.026.13.05.061.024c.062.026.125.053.186.082l.013.006c.057.027.112.055.168.084l.059.033.116.065.068.041.104.065.069.046c.033.023.065.044.097.068l.069.05.093.071.066.052c.031.025.061.051.09.077l.062.054.09.084.056.053.096.099.043.044c.045.048.089.098.132.148l.016.02c.037.044.073.089.109.135l.04.055.077.105.044.065.066.101.043.071.059.101.041.074.054.103.038.075.05.108c.011.025.023.049.033.075.017.038.032.077.047.116a2.087 2.087 0 0 1 .075.205l.019.056c.02.064.039.129.056.195l.009.034c.014.055.027.109.039.164l.014.071.02.105h2.963a.263.263 0 0 0 .266-.26v-2.946h-1.124v-1.406h1.124v-1.806c0-.851-.523-1.606-1.333-1.922l-2.697-1.052H30.031v9.392zm0-10.798h9.257l-2.598-5.939a1.84 1.84 0 0 0-1.692-1.09h-4.967v7.03zM11.789 30.594c1.637 0 2.969-1.299 2.969-2.896s-1.332-2.896-2.969-2.896c-.051 0-.102.001-.153.004-1.364.067-2.488 1.038-2.756 2.309a2.812 2.812 0 0 0-.061.583c0 1.597 1.332 2.896 2.969 2.896zM1.441 22.383h1.124v1.406H1.441v3.131c0 .041.035.075.077.075h5.92l.02-.104.014-.072c.012-.054.024-.107.038-.16l.009-.038a4.26 4.26 0 0 1 .056-.193l.02-.058.046-.132.028-.072.046-.114a2.049 2.049 0 0 1 .084-.182l.038-.076.054-.102.042-.074.059-.1a2.156 2.156 0 0 1 .11-.171 1.08 1.08 0 0 1 .044-.066l.076-.104.042-.057.106-.132a3.757 3.757 0 0 1 .15-.171l.043-.045c.032-.033.063-.066.096-.098l.056-.053.089-.083.062-.055c.029-.025.059-.051.09-.075l.066-.053.092-.071.069-.05.096-.067.07-.047c.034-.023.069-.044.103-.065l.069-.042c.038-.023.077-.044.116-.065.02-.011.04-.023.061-.033.055-.029.11-.057.167-.083l.014-.007c.061-.029.123-.056.186-.082l.061-.024.13-.05.076-.026c.039-.014.079-.027.119-.039l.082-.024c.039-.011.078-.023.118-.033.028-.007.056-.015.085-.021l.118-.026.087-.018c.04-.007.081-.015.122-.021l.086-.014.128-.016.082-.009.143-.011.07-.005a3.893 3.893 0 0 1 .502.005c.048.003.096.006.143.011.028.002.055.006.082.009l.128.016c.029.004.058.008.086.014.041.006.081.014.122.021l.087.018a4.084 4.084 0 0 1 .321.08l.082.024c.04.012.08.026.119.039l.076.026.13.05.061.024c.062.026.124.053.186.082l.014.007c.056.026.112.054.167.083l.06.033.116.065.069.042c.035.021.069.042.103.065l.07.047c.032.022.065.044.096.067l.069.05.092.071c.023.017.044.035.066.053.031.025.061.05.09.076l.062.054.09.084.056.053.096.098.043.044c.045.048.089.098.132.148l.017.021c.036.044.073.088.107.134l.042.055.077.105.044.066c.023.033.044.066.066.1l.044.071.059.101.041.074.055.103a2.6 2.6 0 0 1 .087.183 2.343 2.343 0 0 1 .08.191l.028.071c.017.045.032.09.047.135l.019.055c.02.064.039.129.057.195l.007.031c.014.056.028.111.04.168l.013.069.021.106h12.453V6.106c0-.388.323-.703.721-.703h10.419c.018 0 .073 0 .107-.062s.004-.106-.006-.12l-2.255-3.3a1.18 1.18 0 0 0-.977-.51H17.784a.397.397 0 0 0-.278.112l-1.192 1.163a1.845 1.845 0 0 1-1.297.524H2.608c-.643 0-1.167.511-1.167 1.138v18.039z"/>
      <path d="M5.536 7.198h8.814c1.019 0 1.848.809 1.848 1.802v4.1c0 .994-.829 1.802-1.848 1.802H5.535c-1.019 0-1.848-.809-1.848-1.802V9c.001-.994.83-1.802 1.848-1.802zM5.129 13.1c0 .218.182.396.406.396h8.814a.402.402 0 0 0 .406-.396V9a.402.402 0 0 0-.406-.396H5.534A.402.402 0 0 0 5.128 9l.001 4.1z"/>
    </symbol>
    <symbol id="icon-automatic" viewBox="0 0 32 32">
      <path stroke-linejoin="round" stroke-linecap="round" stroke-width="1.746" d="M22.465 14.707h1.939a1.937 1.937 0 0 0 1.939-1.939 1.937 1.937 0 0 0-1.939-1.939h-1.939v6.465m0 5.171v5.172h1.293a2.588 2.588 0 0 0 2.585-2.586 2.588 2.588 0 0 0-2.585-2.585h-1.293zM4.364 6.949a2.582 2.582 0 0 0 2.585 2.585 2.582 2.582 0 0 0 2.585-2.585 2.582 2.582 0 0 0-2.585-2.585 2.582 2.582 0 0 0-2.585 2.585zM6.95 9.535v3.879a1.295 1.295 0 0 0 1.293 1.293h3.879m-.001 0v9.05a1.295 1.295 0 0 0 1.293 1.293h3.879m-5.172-10.343h5.172"/>
    </symbol>
    <symbol id="icon-location" viewBox="0 0 29 32">
      <path stroke-linejoin="round" stroke-linecap="round" stroke-width="2.4" d="M26.4 13.333c0 9.333-12 17.333-12 17.333s-12-8-12-17.333a12.003 12.003 0 0 1 12-12 12.003 12.003 0 0 1 12 12z"/>
      <path stroke-linejoin="round" stroke-linecap="round" stroke-width="2.4" d="M14.4 17.333a4 4 0 1 0 0-8 4 4 0 0 0 0 8z"/>
    </symbol>
    <symbol id="icon-asterisk" viewBox="0 0 34 32">
<path fill="#ffc531" style="fill: var(--color1, #ffc531); stroke: var(--color1, #ffc531)" stroke="#ffc531" stroke-linejoin="miter" stroke-linecap="butt" stroke-miterlimit="4" stroke-width="2.56" d="M13.227 10.020l3.84-7.277 3.84 7.277c0.34 0.644 0.959 1.093 1.675 1.217l8.108 1.403-5.735 5.9c-0.507 0.522-0.744 1.249-0.64 1.97l1.171 8.144-7.384-3.631c-0.653-0.321-1.418-0.321-2.071 0l-7.384 3.631 1.171-8.144c0.104-0.72-0.133-1.448-0.64-1.97l-5.735-5.9 8.108-1.403c0.717-0.124 1.336-0.574 1.675-1.217z"></path>
</symbol>
<symbol id="icon-clous" viewBox="0 0 32 32">
<path stroke-linejoin="round" stroke-linecap="round" stroke-miterlimit="4" stroke-width="3" d="M24 8l-16 16"></path>
<path stroke-linejoin="round" stroke-linecap="round" stroke-miterlimit="4" stroke-width="3" d="M8 8l16 16"></path>
</symbol>
<symbol id="icon-Shower" viewBox="0 0 31 32">
<path stroke-linejoin="round" stroke-linecap="round" stroke-miterlimit="4" stroke-width="1.9394" d="M5.172 5.657l3.232 3.232M17.454 8.889c-1.204-1.18-2.826-1.837-4.512-1.829s-3.301 0.682-4.493 1.874-1.866 2.807-1.874 4.493c-0.009 1.686 0.649 3.308 1.829 4.512M19.394 6.949l-12.929 12.929M18.101 22.465v0.013M12.929 21.172v0.013M16.808 17.293v0.013M20.687 13.414v0.013M14.222 26.343v0.013M21.98 18.586v0.013M25.859 14.707v0.013"></path>
</symbol>
<symbol id="icon-TV" viewBox="0 0 31 32">
<path stroke-linejoin="round" stroke-linecap="round" stroke-miterlimit="4" stroke-width="1.7455" d="M23.273 25.697h-15.515c-2.149 0-3.879-1.73-3.879-3.879v-9.697c0-2.149 1.73-3.879 3.879-3.879h15.515c2.149 0 3.879 1.73 3.879 3.879v9.697c0 2.149-1.73 3.879-3.879 3.879z"></path>
<path stroke-linejoin="round" stroke-linecap="round" stroke-miterlimit="4" stroke-width="1.7455" d="M11.636 29.576h7.758"></path>
<path stroke-linejoin="round" stroke-linecap="round" stroke-miterlimit="4" stroke-width="1.7455" d="M15.515 8.242l5.818-5.818"></path>
<path stroke-linejoin="round" stroke-linecap="round" stroke-miterlimit="4" stroke-width="1.7455" d="M15.515 8.242l-5.818-5.818"></path>
</symbol>
  </defs>
</svg>
